<mxfile host="www.draw.io" modified="2020-02-10T22:02:12.248Z" agent="Mozilla/5.0 (X11; Linux x86_64; rv:71.0) Gecko/20100101 Firefox/71.0" etag="4yC1vnI8zgQt1mJd7T02" version="12.6.7" type="github">
  <diagram id="jbEALhOgkWal1XQhPFOV" name="Page-1">
    <mxGraphModel dx="868" dy="489" grid="1" gridSize="10" guides="1" tooltips="1" connect="1" arrows="1" fold="1" page="1" pageScale="1" pageWidth="1100" pageHeight="850" math="0" shadow="0">
      <root>
        <mxCell id="0"/>
        <mxCell id="1" parent="0"/>
        <mxCell id="PQB0gIy3SyEiNjIAX_FZ-1" value="Postgres" style="html=1;verticalLabelPosition=bottom;align=center;labelBackgroundColor=#ffffff;verticalAlign=top;strokeWidth=2;strokeColor=#0080F0;shadow=0;dashed=0;shape=mxgraph.ios7.icons.data;aspect=fixed;" vertex="1" parent="1">
          <mxGeometry x="300" y="90" width="52.78" height="64" as="geometry"/>
        </mxCell>
        <mxCell id="PQB0gIy3SyEiNjIAX_FZ-2" value="" style="shape=image;verticalLabelPosition=bottom;verticalAlign=top;imageAspect=0;image=https://github.com/kubernetes/kubernetes/raw/master/logo/logo.png;aspect=fixed;" vertex="1" parent="1">
          <mxGeometry x="40" y="200" width="64" height="62.15" as="geometry"/>
        </mxCell>
        <mxCell id="PQB0gIy3SyEiNjIAX_FZ-3" value="&lt;div&gt;weblate-prod&lt;/div&gt;" style="html=1;dashed=0;whitespace=wrap;fillColor=#2875E2;strokeColor=#ffffff;points=[[0.005,0.63,0],[0.1,0.2,0],[0.9,0.2,0],[0.5,0,0],[0.995,0.63,0],[0.72,0.99,0],[0.5,1,0],[0.28,0.99,0]];shape=mxgraph.kubernetes.icon;prIcon=ns;aspect=fixed;verticalAlign=top;horizontal=1;labelPosition=center;verticalLabelPosition=bottom;align=center;" vertex="1" parent="1">
          <mxGeometry x="100" y="262.15" width="64" height="61.44" as="geometry"/>
        </mxCell>
        <mxCell id="PQB0gIy3SyEiNjIAX_FZ-11" style="edgeStyle=orthogonalEdgeStyle;rounded=0;orthogonalLoop=1;jettySize=auto;html=1;entryX=0;entryY=0.469;entryDx=0;entryDy=0;entryPerimeter=0;" edge="1" parent="1" source="PQB0gIy3SyEiNjIAX_FZ-4" target="PQB0gIy3SyEiNjIAX_FZ-1">
          <mxGeometry relative="1" as="geometry"/>
        </mxCell>
        <mxCell id="PQB0gIy3SyEiNjIAX_FZ-12" style="edgeStyle=orthogonalEdgeStyle;rounded=0;orthogonalLoop=1;jettySize=auto;html=1;entryX=0;entryY=0.438;entryDx=0;entryDy=0;entryPerimeter=0;" edge="1" parent="1" source="PQB0gIy3SyEiNjIAX_FZ-4" target="PQB0gIy3SyEiNjIAX_FZ-7">
          <mxGeometry relative="1" as="geometry"/>
        </mxCell>
        <mxCell id="PQB0gIy3SyEiNjIAX_FZ-14" style="edgeStyle=orthogonalEdgeStyle;rounded=0;orthogonalLoop=1;jettySize=auto;html=1;entryX=0.52;entryY=0.271;entryDx=0;entryDy=0;entryPerimeter=0;" edge="1" parent="1" source="PQB0gIy3SyEiNjIAX_FZ-4" target="PQB0gIy3SyEiNjIAX_FZ-13">
          <mxGeometry relative="1" as="geometry"/>
        </mxCell>
        <mxCell id="PQB0gIy3SyEiNjIAX_FZ-4" value="weblate-k8s" style="html=1;dashed=0;whitespace=wrap;fillColor=#2875E2;strokeColor=#ffffff;points=[[0.005,0.63,0],[0.1,0.2,0],[0.9,0.2,0],[0.5,0,0],[0.995,0.63,0],[0.72,0.99,0],[0.5,1,0],[0.28,0.99,0]];shape=mxgraph.kubernetes.icon;prIcon=pod;labelPosition=center;verticalLabelPosition=bottom;align=center;verticalAlign=top;" vertex="1" parent="1">
          <mxGeometry x="280" y="350" width="50" height="48" as="geometry"/>
        </mxCell>
        <mxCell id="PQB0gIy3SyEiNjIAX_FZ-5" value="weblate-redis" style="html=1;dashed=0;whitespace=wrap;fillColor=#2875E2;strokeColor=#ffffff;points=[[0.005,0.63,0],[0.1,0.2,0],[0.9,0.2,0],[0.5,0,0],[0.995,0.63,0],[0.72,0.99,0],[0.5,1,0],[0.28,0.99,0]];shape=mxgraph.kubernetes.icon;prIcon=pod;labelPosition=center;verticalLabelPosition=bottom;align=center;verticalAlign=top;" vertex="1" parent="1">
          <mxGeometry x="160" y="350" width="50" height="48" as="geometry"/>
        </mxCell>
        <mxCell id="PQB0gIy3SyEiNjIAX_FZ-6" value="" style="html=1;dashed=0;whitespace=wrap;fillColor=#2875E2;strokeColor=#ffffff;points=[[0.005,0.63,0],[0.1,0.2,0],[0.9,0.2,0],[0.5,0,0],[0.995,0.63,0],[0.72,0.99,0],[0.5,1,0],[0.28,0.99,0]];shape=mxgraph.kubernetes.icon;prIcon=pv;labelPosition=center;verticalLabelPosition=bottom;align=center;verticalAlign=top;" vertex="1" parent="1">
          <mxGeometry x="454" y="350" width="50" height="48" as="geometry"/>
        </mxCell>
        <mxCell id="PQB0gIy3SyEiNjIAX_FZ-7" value="&lt;div&gt;azure ad (ldaps connector)&lt;/div&gt;" style="aspect=fixed;html=1;points=[];align=center;image;fontSize=12;image=img/lib/mscae/Azure_AD_Domain_Services.svg;" vertex="1" parent="1">
          <mxGeometry x="440" y="90" width="64" height="64" as="geometry"/>
        </mxCell>
        <mxCell id="PQB0gIy3SyEiNjIAX_FZ-15" style="edgeStyle=orthogonalEdgeStyle;rounded=0;orthogonalLoop=1;jettySize=auto;html=1;" edge="1" parent="1" source="PQB0gIy3SyEiNjIAX_FZ-13">
          <mxGeometry relative="1" as="geometry">
            <mxPoint x="480" y="410" as="targetPoint"/>
          </mxGeometry>
        </mxCell>
        <mxCell id="PQB0gIy3SyEiNjIAX_FZ-13" value="App basic data" style="html=1;dashed=0;whitespace=wrap;fillColor=#2875E2;strokeColor=#ffffff;points=[[0.005,0.63,0],[0.1,0.2,0],[0.9,0.2,0],[0.5,0,0],[0.995,0.63,0],[0.72,0.99,0],[0.5,1,0],[0.28,0.99,0]];shape=mxgraph.kubernetes.icon;prIcon=pvc;labelPosition=center;verticalLabelPosition=bottom;align=center;verticalAlign=top;" vertex="1" parent="1">
          <mxGeometry x="280" y="430" width="50" height="48" as="geometry"/>
        </mxCell>
      </root>
    </mxGraphModel>
  </diagram>
</mxfile>
